<?xml version="1.0" encoding="UTF-8" standalone="no"?>
<!-- Created with Inkscape (http://www.inkscape.org/) -->

<svg
   xmlns:dc="http://purl.org/dc/elements/1.1/"
   xmlns:cc="http://creativecommons.org/ns#"
   xmlns:rdf="http://www.w3.org/1999/02/22-rdf-syntax-ns#"
   xmlns:svg="http://www.w3.org/2000/svg"
   xmlns="http://www.w3.org/2000/svg"
   xmlns:sodipodi="http://sodipodi.sourceforge.net/DTD/sodipodi-0.dtd"
   xmlns:inkscape="http://www.inkscape.org/namespaces/inkscape"
   id="svg2"
   version="1.1"
   inkscape:version="0.48.4 r9939"
   width="300"
   height="300"
   xml:space="preserve"
   sodipodi:docname="iconos_diseno_web.svg"><metadata
     id="metadata8"><rdf:RDF><cc:Work
         rdf:about=""><dc:format>image/svg+xml</dc:format><dc:type
           rdf:resource="http://purl.org/dc/dcmitype/StillImage" /><dc:title></dc:title></cc:Work></rdf:RDF></metadata><defs
     id="defs6"><clipPath
       clipPathUnits="userSpaceOnUse"
       id="clipPath18"><path
         d="m 0,799.92 799.92,0 L 799.92,0 0,0 0,799.92 z"
         id="path20"
         inkscape:connector-curvature="0" /></clipPath><clipPath
       clipPathUnits="userSpaceOnUse"
       id="clipPath138"><path
         d="m 0,799.92 799.92,0 L 799.92,0 0,0 0,799.92 z"
         id="path140"
         inkscape:connector-curvature="0" /></clipPath><clipPath
       clipPathUnits="userSpaceOnUse"
       id="clipPath228"><path
         d="m 0,799.92 799.92,0 L 799.92,0 0,0 0,799.92 z"
         id="path230"
         inkscape:connector-curvature="0" /></clipPath><clipPath
       clipPathUnits="userSpaceOnUse"
       id="clipPath508"><path
         d="m 0,799.92 799.92,0 L 799.92,0 0,0 0,799.92 z"
         id="path510"
         inkscape:connector-curvature="0" /></clipPath><clipPath
       clipPathUnits="userSpaceOnUse"
       id="clipPath990"><path
         d="m 0,799.92 799.92,0 L 799.92,0 0,0 0,799.92 z"
         id="path992"
         inkscape:connector-curvature="0" /></clipPath><clipPath
       clipPathUnits="userSpaceOnUse"
       id="clipPath1094"><path
         d="m 0,799.92 799.92,0 L 799.92,0 0,0 0,799.92 z"
         id="path1096"
         inkscape:connector-curvature="0" /></clipPath><clipPath
       clipPathUnits="userSpaceOnUse"
       id="clipPath1634"><path
         d="m 0,799.92 799.92,0 L 799.92,0 0,0 0,799.92 z"
         id="path1636"
         inkscape:connector-curvature="0" /></clipPath><clipPath
       clipPathUnits="userSpaceOnUse"
       id="clipPath1896"><path
         d="m 0,799.92 799.92,0 L 799.92,0 0,0 0,799.92 z"
         id="path1898"
         inkscape:connector-curvature="0" /></clipPath><clipPath
       clipPathUnits="userSpaceOnUse"
       id="clipPath2164"><path
         d="m 0,799.92 799.92,0 L 799.92,0 0,0 0,799.92 z"
         id="path2166"
         inkscape:connector-curvature="0" /></clipPath><clipPath
       clipPathUnits="userSpaceOnUse"
       id="clipPath2480"><path
         d="m 0,799.92 799.92,0 L 799.92,0 0,0 0,799.92 z"
         id="path2482"
         inkscape:connector-curvature="0" /></clipPath></defs><sodipodi:namedview
     pagecolor="#ffffff"
     bordercolor="#666666"
     borderopacity="1"
     objecttolerance="10"
     gridtolerance="10"
     guidetolerance="10"
     inkscape:pageopacity="0"
     inkscape:pageshadow="2"
     inkscape:window-width="1366"
     inkscape:window-height="717"
     id="namedview4"
     showgrid="false"
     inkscape:zoom="0.9440944"
     inkscape:cx="287.37775"
     inkscape:cy="159.69666"
     inkscape:window-x="0"
     inkscape:window-y="25"
     inkscape:window-maximized="1"
     inkscape:current-layer="g10" /><g
     id="g10"
     inkscape:groupmode="layer"
     inkscape:label="mixocial_01"
     transform="matrix(1.25,0,0,-1.25,0,300)"><g
       id="g496"
       transform="translate(65.07787,213.9505)"><path
         d="m 0,0 134.225,0 c 14.093,0 25.625,-11.531 25.625,-25.625 l 0,-134.225 c 0,-14.093 -11.532,-25.625 -25.625,-25.625 l -134.225,0 c -14.094,0 -25.625,11.532 -25.625,25.625 l 0,134.225 C -25.625,-11.531 -14.094,0 0,0"
         style="fill:#ed7b5c;fill-opacity:1;fill-rule:evenodd;stroke:none"
         id="path498"
         inkscape:connector-curvature="0" /></g><path
       d="m 74.88717,41.729598 114.605,0 0,156.958002 -114.605,0 0,-156.958002 z"
       style="fill:#ffffff;fill-opacity:1;fill-rule:evenodd;stroke:none"
       id="path512"
       inkscape:connector-curvature="0" /><path
       d="m 81.82917,88.524598 28.777,0 0,4.865 -28.777,0 0,-4.865 z"
       style="fill:#cccccc;fill-opacity:1;fill-rule:evenodd;stroke:none"
       id="path514"
       inkscape:connector-curvature="0" /><path
       d="m 81.82917,80.163598 28.777,0 0,4.866 -28.777,0 0,-4.866 z"
       style="fill:#cccccc;fill-opacity:1;fill-rule:evenodd;stroke:none"
       id="path516"
       inkscape:connector-curvature="0" /><path
       d="m 81.82917,71.802598 28.777,0 0,4.866 -28.777,0 0,-4.866 z"
       style="fill:#cccccc;fill-opacity:1;fill-rule:evenodd;stroke:none"
       id="path518"
       inkscape:connector-curvature="0" /><path
       d="m 81.82917,63.442598 18.221,0 0,4.866 -18.221,0 0,-4.866 z"
       style="fill:#cccccc;fill-opacity:1;fill-rule:evenodd;stroke:none"
       id="path520"
       inkscape:connector-curvature="0" /><path
       d="m 117.80117,88.524598 28.777,0 0,4.865 -28.777,0 0,-4.865 z"
       style="fill:#cccccc;fill-opacity:1;fill-rule:evenodd;stroke:none"
       id="path522"
       inkscape:connector-curvature="0" /><path
       d="m 117.80117,80.163598 28.777,0 0,4.866 -28.777,0 0,-4.866 z"
       style="fill:#cccccc;fill-opacity:1;fill-rule:evenodd;stroke:none"
       id="path524"
       inkscape:connector-curvature="0" /><path
       d="m 117.80117,71.802598 28.777,0 0,4.866 -28.777,0 0,-4.866 z"
       style="fill:#cccccc;fill-opacity:1;fill-rule:evenodd;stroke:none"
       id="path526"
       inkscape:connector-curvature="0" /><path
       d="m 117.80117,63.442598 18.221,0 0,4.866 -18.221,0 0,-4.866 z"
       style="fill:#cccccc;fill-opacity:1;fill-rule:evenodd;stroke:none"
       id="path528"
       inkscape:connector-curvature="0" /><path
       d="m 74.88717,191.0656 114.605,0 0,7.621 -114.605,0 0,-7.621 z"
       style="fill:#a2c9eb;fill-opacity:1;fill-rule:evenodd;stroke:none"
       id="path530"
       inkscape:connector-curvature="0" /><g
       id="g532"
       transform="translate(73.24777,161.1863)"><path
         d="m 0,0 114.455,5.871 1.64,-31.96 L 1.64,-31.96 0,0 z"
         style="fill:#5896cc;fill-opacity:1;fill-rule:evenodd;stroke:none"
         id="path534"
         inkscape:connector-curvature="0" /></g><g
       id="g536"
       transform="translate(84.35227,146.6209)"><path
         d="M 0,0 C 0.178,0.224 0.504,0.262 0.728,0.083 0.952,-0.095 0.989,-0.421 0.811,-0.645 L -0.278,-2.008 0.811,-3.371 C 0.989,-3.595 0.952,-3.921 0.728,-4.1 0.504,-4.278 0.178,-4.24 0,-4.017 l -1.343,1.682 c -0.012,0.015 -0.023,0.03 -0.033,0.046 l -0.002,0.002 -0.013,0.022 -0.01,0.018 -0.002,0.005 -0.01,0.018 -0.005,0.013 c -0.007,0.018 -0.014,0.036 -0.019,0.054 l -0.002,0.005 c -0.007,0.024 -0.012,0.047 -0.015,0.071 l -0.001,0.004 c -0.002,0.018 -0.003,0.036 -0.004,0.054 l 0,0.012 0,0.006 0,0.012 c 0.001,0.018 0.002,0.036 0.004,0.054 l 0.001,0.004 c 0.003,0.023 0.008,0.047 0.015,0.07 l 0.002,0.006 c 0.005,0.018 0.012,0.036 0.019,0.054 l 0.005,0.013 0.01,0.018 0.002,0.004 0.01,0.019 0.013,0.022 0.002,0.002 c 0.01,0.016 0.021,0.031 0.033,0.046 L 0,0 z"
         style="fill:#ffffff;fill-opacity:1;fill-rule:nonzero;stroke:none"
         id="path538"
         inkscape:connector-curvature="0" /></g><g
       id="g540"
       transform="translate(179.96157,146.6209)"><path
         d="m 0,0 c -0.179,0.224 -0.505,0.262 -0.729,0.083 -0.223,-0.178 -0.26,-0.504 -0.083,-0.728 l 1.089,-1.363 -1.089,-1.363 c -0.177,-0.224 -0.14,-0.55 0.083,-0.729 0.224,-0.178 0.55,-0.14 0.729,0.083 l 1.342,1.682 c 0.012,0.015 0.024,0.03 0.034,0.046 l 0.002,0.002 0.013,0.022 0.009,0.018 0.003,0.005 0.009,0.018 0.005,0.013 c 0.008,0.018 0.014,0.036 0.02,0.054 l 10e-4,0.005 c 0.007,0.024 0.012,0.047 0.015,0.071 l 10e-4,0.004 c 0.003,0.018 0.004,0.036 0.004,0.054 l 0.001,0.012 0,0.006 -0.001,0.012 c 0,0.018 -10e-4,0.036 -0.004,0.054 l -10e-4,0.004 c -0.003,0.023 -0.008,0.047 -0.015,0.07 l -10e-4,0.006 c -0.005,0.018 -0.012,0.036 -0.02,0.054 L 1.412,-1.792 1.403,-1.774 1.4,-1.77 1.391,-1.751 1.378,-1.729 1.376,-1.727 c -0.01,0.016 -0.022,0.031 -0.034,0.046 L 0,0 z"
         style="fill:#ffffff;fill-opacity:1;fill-rule:nonzero;stroke:none"
         id="path542"
         inkscape:connector-curvature="0" /></g><path
       d="m 96.89917,165.4156 70.581,0 0,4.866 -70.581,0 0,-4.866 z"
       style="fill:#91bde3;fill-opacity:1;fill-rule:evenodd;stroke:none"
       id="path544"
       inkscape:connector-curvature="0" /><path
       d="m 81.82917,96.939598 28.778,0 0,25.862002 -28.778,0 0,-25.862002 z"
       style="fill:#ffd47f;fill-opacity:1;fill-rule:evenodd;stroke:none"
       id="path546"
       inkscape:connector-curvature="0" /><path
       d="m 117.80117,96.939598 28.778,0 0,25.862002 -28.778,0 0,-25.862002 z"
       style="fill:#fa9891;fill-opacity:1;fill-rule:evenodd;stroke:none"
       id="path548"
       inkscape:connector-curvature="0" /><path
       d="m 153.77317,96.939598 28.778,0 0,25.862002 -28.778,0 0,-25.862002 z"
       style="fill:#a2c9eb;fill-opacity:1;fill-rule:evenodd;stroke:none"
       id="path550"
       inkscape:connector-curvature="0" /><path
       d="m 74.88717,41.729598 114.604,0 0,13.952 -114.604,0 0,-13.952 z"
       style="fill:#a2c9eb;fill-opacity:1;fill-rule:evenodd;stroke:none"
       id="path552"
       inkscape:connector-curvature="0" /><path
       d="m 117.80117,71.802598 28.777,0 0,4.866 -28.777,0 0,-4.866 z"
       style="fill:#a2c9eb;fill-opacity:1;fill-rule:evenodd;stroke:none"
       id="path554"
       inkscape:connector-curvature="0" /><path
       d="m 117.80117,63.442598 18.221,0 0,4.866 -18.221,0 0,-4.866 z"
       style="fill:#a2c9eb;fill-opacity:1;fill-rule:evenodd;stroke:none"
       id="path556"
       inkscape:connector-curvature="0" /><path
       d="m 153.77417,88.524598 28.777,0 0,4.865 -28.777,0 0,-4.865 z"
       style="fill:#cccccc;fill-opacity:1;fill-rule:evenodd;stroke:none"
       id="path558"
       inkscape:connector-curvature="0" /><path
       d="m 153.77417,80.163598 28.777,0 0,4.866 -28.777,0 0,-4.866 z"
       style="fill:#cccccc;fill-opacity:1;fill-rule:evenodd;stroke:none"
       id="path560"
       inkscape:connector-curvature="0" /><path
       d="m 153.77417,71.802598 28.777,0 0,4.866 -28.777,0 0,-4.866 z"
       style="fill:#cccccc;fill-opacity:1;fill-rule:evenodd;stroke:none"
       id="path562"
       inkscape:connector-curvature="0" /><path
       d="m 153.77417,63.442598 18.221,0 0,4.866 -18.221,0 0,-4.866 z"
       style="fill:#cccccc;fill-opacity:1;fill-rule:evenodd;stroke:none"
       id="path564"
       inkscape:connector-curvature="0" /><g
       id="g566"
       transform="translate(166.64427,195.7888)"><path
         d="m 0,0 c -1.469,3.287 -3.56,5.549 -4.669,5.053 -1.109,-0.496 -0.818,-3.563 0.651,-6.849 0.782,-1.751 1.203,-3.96 1.771,-4.537 0.496,-0.504 3.683,-0.064 3.875,0.563 C 2.01,-4.518 0.932,-2.084 0,0"
         style="fill:#5896cc;fill-opacity:1;fill-rule:evenodd;stroke:none"
         id="path568"
         inkscape:connector-curvature="0" /></g><g
       id="g570"
       transform="translate(97.75707,195.7888)"><path
         d="M 0,0 C 1.469,3.287 3.56,5.549 4.669,5.053 5.779,4.557 5.487,1.49 4.018,-1.796 3.236,-3.546 2.816,-5.756 2.248,-6.332 1.751,-6.837 -1.436,-6.397 -1.627,-5.77 -2.009,-4.518 -0.932,-2.084 0,0"
         style="fill:#5896cc;fill-opacity:1;fill-rule:evenodd;stroke:none"
         id="path572"
         inkscape:connector-curvature="0" /></g><g
       id="g574"
       transform="translate(93.95087,201.7117)"><path
         d="m 0,0 c 4.624,0 8.371,-1.02 8.371,-2.277 0,-1.259 -3.747,-2.278 -8.371,-2.278 -4.624,0 -7.826,0.575 -7.826,1.833 C -7.826,-1.465 -4.624,0 0,0"
         style="fill:#5896cc;fill-opacity:1;fill-rule:evenodd;stroke:none"
         id="path576"
         inkscape:connector-curvature="0" /></g><g
       id="g578"
       transform="translate(169.90597,201.7117)"><path
         d="m 0,0 c -4.624,0 -8.371,-1.144 -8.371,-2.554 0,-1.411 3.747,-2.554 8.371,-2.554 4.624,0 8.056,1.2 8.056,2.611 C 8.056,-1.087 4.624,0 0,0"
         style="fill:#5896cc;fill-opacity:1;fill-rule:evenodd;stroke:none"
         id="path580"
         inkscape:connector-curvature="0" /></g><g
       id="g582"
       transform="translate(105.94307,209.3758)"><path
         d="m 0,0 c 0,-0.917 1.319,-1.122 1.578,-0.2 0.016,0.068 0.025,0.129 0.025,0.2 l 0,1.602 c 0,0.917 -1.319,1.122 -1.578,0.2 C 0.009,1.734 0,1.673 0,1.602 L 0,0 z"
         style="fill:#5896cc;fill-opacity:1;fill-rule:nonzero;stroke:none"
         id="path584"
         inkscape:connector-curvature="0" /></g><g
       id="g586"
       transform="translate(105.94307,202.9676)"><path
         d="M 0,0 C 0,-0.917 1.319,-1.122 1.578,-0.201 1.594,-0.133 1.603,-0.071 1.603,0 l 0,1.602 c 0,0.917 -1.319,1.121 -1.578,0.2 C 0.009,1.734 0,1.673 0,1.602 L 0,0 z"
         style="fill:#5896cc;fill-opacity:1;fill-rule:nonzero;stroke:none"
         id="path588"
         inkscape:connector-curvature="0" /></g><g
       id="g590"
       transform="translate(105.94307,196.5594)"><path
         d="M 0,0 C 0,-0.917 1.319,-1.122 1.578,-0.201 1.594,-0.133 1.603,-0.071 1.603,0 l 0,1.602 c 0,0.916 -1.319,1.121 -1.578,0.2 C 0.009,1.734 0,1.672 0,1.602 L 0,0 z"
         style="fill:#5896cc;fill-opacity:1;fill-rule:nonzero;stroke:none"
         id="path592"
         inkscape:connector-curvature="0" /></g><g
       id="g594"
       transform="translate(105.94307,190.1502)"><path
         d="m 0,0 c 0,-0.917 1.319,-1.122 1.578,-0.2 0.016,0.068 0.025,0.129 0.025,0.2 l 0,1.603 C 1.603,2.519 0.284,2.724 0.025,1.802 0.009,1.735 0,1.673 0,1.603 L 0,0 z"
         style="fill:#5896cc;fill-opacity:1;fill-rule:nonzero;stroke:none"
         id="path596"
         inkscape:connector-curvature="0" /></g><g
       id="g598"
       transform="translate(105.94307,183.7415)"><path
         d="m 0,0 c 0,-0.917 1.319,-1.121 1.578,-0.2 0.016,0.068 0.025,0.129 0.025,0.2 l 0,1.603 c 0,0.916 -1.319,1.121 -1.578,0.2 C 0.009,1.735 0,1.673 0,1.603 L 0,0 z"
         style="fill:#5896cc;fill-opacity:1;fill-rule:nonzero;stroke:none"
         id="path600"
         inkscape:connector-curvature="0" /></g><g
       id="g602"
       transform="translate(107.54557,217.386)"><path
         d="M 0,0 C 0,0.917 -1.319,1.122 -1.577,0.201 -1.593,0.133 -1.603,0.071 -1.603,0 l 0,-1.602 c 0,-0.917 1.32,-1.122 1.578,-0.2 C -0.009,-1.734 0,-1.673 0,-1.602 L 0,0 z"
         style="fill:#5896cc;fill-opacity:1;fill-rule:nonzero;stroke:none"
         id="path604"
         inkscape:connector-curvature="0" /></g><g
       id="g606"
       transform="translate(105.94307,178.0774)"><path
         d="M 0,0 C 0,-0.917 1.319,-1.122 1.577,-0.201 1.594,-0.133 1.603,-0.071 1.603,0 l 0,1.601 C 1.603,2.518 0.284,2.723 0.025,1.802 0.009,1.734 0,1.672 0,1.602 L 0,0 z"
         style="fill:#5896cc;fill-opacity:1;fill-rule:nonzero;stroke:none"
         id="path608"
         inkscape:connector-curvature="0" /></g><g
       id="g610"
       transform="translate(94.19987,218.8914)"><path
         d="m 0,0 c -0.001,-1.325 0.266,-3.607 -0.226,-6.396 -0.757,-4.302 -0.619,-8.528 -1.272,-11.26 -0.456,-1.913 -1.059,-3.094 -3.669,-3.058 -4.633,0.064 -6.669,5.179 -4.446,10.852 C -7.391,-4.188 -1.875,0.812 0,0"
         style="fill:#a2c9eb;fill-opacity:1;fill-rule:evenodd;stroke:none"
         id="path612"
         inkscape:connector-curvature="0" /></g><g
       id="g614"
       transform="translate(94.10667,202.4524)"><path
         d="m 0,0 c 4.864,0 8.807,-1.04 8.807,-2.322 0,-1.282 -3.943,-2.322 -8.807,-2.322 -4.864,0 -8.232,0.586 -8.232,1.869 C -8.232,-1.493 -4.864,0 0,0"
         style="fill:#a2c9eb;fill-opacity:1;fill-rule:evenodd;stroke:none"
         id="path616"
         inkscape:connector-curvature="0" /></g><g
       id="g618"
       transform="translate(99.27507,189.5652)"><path
         d="m 0,0 c -1.713,1.163 -3.523,1.394 -4.042,0.514 -0.52,-0.878 0.447,-2.533 2.16,-3.696 1.714,-1.163 3.523,-1.393 4.043,-0.515 C 2.681,-2.818 1.713,-1.163 0,0"
         style="fill:#5896cc;fill-opacity:1;fill-rule:evenodd;stroke:none"
         id="path620"
         inkscape:connector-curvature="0" /></g><g
       id="g622"
       transform="translate(97.43967,196.1018)"><path
         d="M 0,0 C 1.679,3.185 3.912,5.307 4.987,4.74 6.062,4.173 5.572,1.132 3.893,-2.053 2.999,-3.749 2.436,-5.926 1.833,-6.465 1.304,-6.936 -1.848,-6.29 -1.998,-5.652 -2.298,-4.377 -1.064,-2.019 0,0"
         style="fill:#a2c9eb;fill-opacity:1;fill-rule:evenodd;stroke:none"
         id="path624"
         inkscape:connector-curvature="0" /></g><g
       id="g626"
       transform="translate(94.40497,219.0271)"><path
         d="M 0,0 C 0,-0.731 -0.056,-1.784 -0.078,-3.055 -1.477,-2.758 -2.5,-1.846 -2.912,-0.989 -1.693,-0.125 -0.629,0.273 0,0"
         style="fill:#ffd7b7;fill-opacity:1;fill-rule:evenodd;stroke:none"
         id="path628"
         inkscape:connector-curvature="0" /></g><g
       id="g630"
       transform="translate(94.98257,213.5252)"><path
         d="M 0,0 C 2.107,-2.018 3.417,-4.07 2.924,-4.584 2.433,-5.099 0.326,-3.88 -1.782,-1.862 -3.89,0.156 -6.288,1.327 -4.707,2.722 -3.126,4.117 -2.107,2.018 0,0"
         style="fill:#a2c9eb;fill-opacity:1;fill-rule:evenodd;stroke:none"
         id="path632"
         inkscape:connector-curvature="0" /></g><g
       id="g634"
       transform="translate(106.59537,208.3645)"><path
         d="M 0,0 C 1.253,-0.104 2.278,0.315 2.291,0.935 2.303,1.555 1.298,2.141 0.045,2.244 -1.208,2.348 -2.233,1.929 -2.246,1.309 -2.258,0.689 -1.253,0.104 0,0"
         style="fill:#ffd7b7;fill-opacity:1;fill-rule:evenodd;stroke:none"
         id="path636"
         inkscape:connector-curvature="0" /></g><g
       id="g638"
       transform="translate(96.05147,227.4109)"><path
         d="m 0,0 c 2.865,0 5.187,-2.322 5.187,-5.186 0,-2.864 -2.322,-5.186 -5.187,-5.186 -2.864,0 -5.186,2.322 -5.186,5.186 C -5.186,-2.322 -2.864,0 0,0"
         style="fill:#ffd7b7;fill-opacity:1;fill-rule:evenodd;stroke:none"
         id="path640"
         inkscape:connector-curvature="0" /></g><g
       id="g642"
       transform="translate(96.05147,227.4109)"><path
         d="m 0,0 c 2.865,0 5.187,-2.322 5.187,-5.186 0,-0.142 -0.007,-0.281 -0.018,-0.42 -1.093,-0.294 -2.586,-0.845 -5.595,0.42 -1.644,1.862 -1.887,-1.013 -1.597,-1.459 0.459,-0.707 -3.419,-4.164 -3.419,1.288 C -5.442,-2.492 -2.864,0 0,0"
         style="fill:#4d4d4d;fill-opacity:1;fill-rule:evenodd;stroke:none"
         id="path644"
         inkscape:connector-curvature="0" /></g><g
       id="g646"
       transform="translate(96.06607,227.7586)"><path
         d="m 0,0 c 3.061,0 5.551,-2.444 5.624,-5.488 l -9.9,3.518 C -3.244,-0.765 -1.711,0 0,0"
         style="fill:#a2c9eb;fill-opacity:1;fill-rule:evenodd;stroke:none"
         id="path648"
         inkscape:connector-curvature="0" /></g><g
       id="g650"
       transform="translate(91.53827,225.9676)"><path
         d="M 0,0 11.391,-4.048 11.225,-4.503 -0.165,-0.456 0,0 z"
         style="fill:#a2c9eb;fill-opacity:1;fill-rule:evenodd;stroke:none"
         id="path652"
         inkscape:connector-curvature="0" /></g><g
       id="g654"
       transform="translate(96.09297,227.1892)"><path
         d="m 0,0 c 2.478,0 4.539,-1.778 4.979,-4.128 -0.758,2.194 -2.841,3.769 -5.292,3.769 -1.097,0 -2.119,-0.315 -2.982,-0.86 C -2.41,-0.459 -1.259,0 0,0"
         style="fill:#ffffff;fill-opacity:1;fill-rule:evenodd;stroke:none"
         id="path656"
         inkscape:connector-curvature="0" /></g><g
       id="g658"
       transform="translate(101.30387,208.3645)"><path
         d="M 0,0 C -2.541,-0.104 -4.62,0.315 -4.646,0.935 -4.67,1.555 -2.103,2.162 -0.091,2.244 1.92,2.326 2.611,2.282 3.457,2.09 3.704,2.034 3.801,0.433 3.546,0.352 2.668,0.076 1.45,0.059 0,0"
         style="fill:#a2c9eb;fill-opacity:1;fill-rule:evenodd;stroke:none"
         id="path660"
         inkscape:connector-curvature="0" /></g><g
       id="g662"
       transform="translate(94.80437,215.9182)"><path
         d="M 0,0 C 2.901,-0.312 5.19,-1.14 5.114,-1.848 5.038,-2.556 2.625,-2.875 -0.277,-2.562 -3.177,-2.249 -5.792,-2.784 -5.391,-0.714 -4.988,1.356 -2.901,0.313 0,0"
         style="fill:#a2c9eb;fill-opacity:1;fill-rule:evenodd;stroke:none"
         id="path664"
         inkscape:connector-curvature="0" /></g><g
       id="g666"
       transform="translate(107.15397,218.9143)"><path
         d="M 0,0 C 1.056,0.682 1.613,1.64 1.245,2.138 0.877,2.637 -0.277,2.487 -1.333,1.806 -2.389,1.124 -2.946,0.166 -2.578,-0.332 -2.21,-0.831 -1.056,-0.683 0,0"
         style="fill:#ffd7b7;fill-opacity:1;fill-rule:evenodd;stroke:none"
         id="path668"
         inkscape:connector-curvature="0" /></g><g
       id="g670"
       transform="translate(102.96117,215.6858)"><path
         d="m 0,0 c -1.95,-1.631 -3.853,-2.569 -4.251,-2.093 -0.398,0.476 1.266,2.523 2.81,3.816 C 0.103,3.015 0.677,3.401 1.464,3.765 1.694,3.871 2.748,2.662 2.594,2.443 2.068,1.687 1.113,0.931 0,0"
         style="fill:#a2c9eb;fill-opacity:1;fill-rule:evenodd;stroke:none"
         id="path672"
         inkscape:connector-curvature="0" /></g><g
       id="g674"
       transform="translate(170.04367,219.0276)"><path
         d="m 0,0 c 0.001,-1.325 0.182,-3.704 0.02,-6.532 -0.416,-7.316 -1.763,-14.407 5.351,-14.318 4.635,0.058 6.669,5.179 4.447,10.852 C 7.596,-4.325 1.875,0.812 0,0"
         style="fill:#a2c9eb;fill-opacity:1;fill-rule:evenodd;stroke:none"
         id="path676"
         inkscape:connector-curvature="0" /></g><g
       id="g678"
       transform="translate(170.34147,202.4524)"><path
         d="m 0,0 c -4.864,0 -8.807,-1.04 -8.807,-2.322 0,-1.282 3.943,-2.322 8.807,-2.322 4.864,0 8.232,0.586 8.232,1.869 C 8.232,-1.493 4.864,0 0,0"
         style="fill:#a2c9eb;fill-opacity:1;fill-rule:evenodd;stroke:none"
         id="path680"
         inkscape:connector-curvature="0" /></g><g
       id="g682"
       transform="translate(165.17257,189.5652)"><path
         d="M 0,0 C 1.714,1.163 3.523,1.394 4.043,0.514 4.562,-0.364 3.596,-2.019 1.882,-3.182 0.169,-4.345 -1.641,-4.575 -2.16,-3.697 -2.68,-2.818 -1.712,-1.163 0,0"
         style="fill:#5896cc;fill-opacity:1;fill-rule:evenodd;stroke:none"
         id="path684"
         inkscape:connector-curvature="0" /></g><g
       id="g686"
       transform="translate(167.00847,196.1018)"><path
         d="m 0,0 c -1.679,3.185 -3.911,5.307 -4.987,4.74 -1.075,-0.567 -0.585,-3.608 1.093,-6.793 0.895,-1.696 1.458,-3.873 2.062,-4.412 0.528,-0.471 3.68,0.175 3.83,0.813 C 2.299,-4.377 1.065,-2.019 0,0"
         style="fill:#a2c9eb;fill-opacity:1;fill-rule:evenodd;stroke:none"
         id="path688"
         inkscape:connector-curvature="0" /></g><g
       id="g690"
       transform="translate(170.04367,219.0271)"><path
         d="m 0,0 c 0.001,-0.731 0.056,-1.784 0.078,-3.055 1.399,0.297 2.421,1.209 2.834,2.066 C 1.693,-0.125 0.629,0.273 0,0"
         style="fill:#ffd7b7;fill-opacity:1;fill-rule:evenodd;stroke:none"
         id="path692"
         inkscape:connector-curvature="0" /></g><g
       id="g694"
       transform="translate(168.39617,227.4109)"><path
         d="m 0,0 c -2.864,0 -5.186,-2.322 -5.186,-5.186 0,-2.864 2.322,-5.186 5.186,-5.186 2.864,0 5.187,2.322 5.187,5.186 C 5.187,-2.322 2.864,0 0,0"
         style="fill:#ffd7b7;fill-opacity:1;fill-rule:evenodd;stroke:none"
         id="path696"
         inkscape:connector-curvature="0" /></g><g
       id="g698"
       transform="translate(168.39617,227.4109)"><path
         d="m 0,0 c -2.864,0 -5.186,-2.322 -5.186,-5.186 0,-0.142 0.006,-0.281 0.017,-0.42 1.094,-0.294 2.586,-0.845 5.596,0.42 1.644,1.862 1.886,-1.013 1.597,-1.459 -0.459,-0.707 3.418,-4.164 3.418,1.288 C 5.442,-2.492 2.864,0 0,0"
         style="fill:#4d4d4d;fill-opacity:1;fill-rule:evenodd;stroke:none"
         id="path700"
         inkscape:connector-curvature="0" /></g><g
       id="g702"
       transform="translate(168.38247,227.7586)"><path
         d="m 0,0 c -3.062,0 -5.551,-2.444 -5.624,-5.488 l 9.9,3.518 C 3.243,-0.765 1.711,0 0,0"
         style="fill:#a2c9eb;fill-opacity:1;fill-rule:evenodd;stroke:none"
         id="path704"
         inkscape:connector-curvature="0" /></g><g
       id="g706"
       transform="translate(172.90987,225.9676)"><path
         d="m 0,0 -11.391,-4.048 0.166,-0.455 11.39,4.047 L 0,0 z"
         style="fill:#a2c9eb;fill-opacity:1;fill-rule:evenodd;stroke:none"
         id="path708"
         inkscape:connector-curvature="0" /></g><g
       id="g710"
       transform="translate(168.35517,227.1892)"><path
         d="m 0,0 c -2.477,0 -4.539,-1.778 -4.978,-4.128 0.757,2.194 2.84,3.769 5.291,3.769 1.097,0 2.119,-0.315 2.982,-0.86 C 2.409,-0.459 1.259,0 0,0"
         style="fill:#ffffff;fill-opacity:1;fill-rule:evenodd;stroke:none"
         id="path712"
         inkscape:connector-curvature="0" /></g><g
       id="g714"
       transform="translate(169.46647,213.5252)"><path
         d="m 0,0 c -2.108,-2.018 -3.418,-4.07 -2.925,-4.584 0.491,-0.515 2.599,0.704 4.706,2.722 C 3.889,0.156 6.288,1.327 4.706,2.722 3.125,4.117 2.106,2.018 0,0"
         style="fill:#a2c9eb;fill-opacity:1;fill-rule:evenodd;stroke:none"
         id="path716"
         inkscape:connector-curvature="0" /></g><g
       id="g718"
       transform="translate(157.85227,208.3645)"><path
         d="m 0,0 c -1.253,-0.104 -2.277,0.315 -2.29,0.935 -0.013,0.62 0.992,1.206 2.245,1.309 C 1.208,2.348 2.233,1.929 2.246,1.309 2.259,0.689 1.253,0.104 0,0"
         style="fill:#ffd7b7;fill-opacity:1;fill-rule:evenodd;stroke:none"
         id="path720"
         inkscape:connector-curvature="0" /></g><g
       id="g722"
       transform="translate(163.14427,208.3645)"><path
         d="M 0,0 C 2.541,-0.104 4.621,0.315 4.646,0.935 4.671,1.555 2.104,2.162 0.092,2.244 -1.92,2.326 -2.611,2.282 -3.456,2.09 -3.704,2.034 -3.801,0.433 -3.546,0.352 -2.668,0.076 -1.449,0.059 0,0"
         style="fill:#a2c9eb;fill-opacity:1;fill-rule:evenodd;stroke:none"
         id="path724"
         inkscape:connector-curvature="0" /></g><g
       id="g726"
       transform="translate(170.18427,212.3225)"><path
         d="m 0,0 c -1.14,-2.686 -1.533,-5.088 -0.878,-5.366 0.655,-0.278 2.11,1.673 3.251,4.359 1.14,2.686 2.882,4.708 0.878,5.366 C 1.248,5.017 1.141,2.686 0,0"
         style="fill:#a2c9eb;fill-opacity:1;fill-rule:evenodd;stroke:none"
         id="path728"
         inkscape:connector-curvature="0" /></g><g
       id="g730"
       transform="translate(161.55047,202.9983)"><path
         d="m 0,0 c -1.11,-0.589 -2.218,-0.609 -2.474,-0.045 -0.255,0.565 0.437,1.5 1.547,2.089 C 0.184,2.634 1.29,2.654 1.547,2.09 1.803,1.525 1.11,0.589 0,0"
         style="fill:#ffd7b7;fill-opacity:1;fill-rule:evenodd;stroke:none"
         id="path732"
         inkscape:connector-curvature="0" /></g><g
       id="g734"
       transform="translate(166.41277,205.0862)"><path
         d="M 0,0 C 2.375,0.908 4.12,2.113 3.9,2.692 3.678,3.272 1.079,2.817 -0.802,2.098 -2.683,1.38 -3.3,1.067 -4.001,0.557 -4.206,0.408 -3.663,-1.101 -3.397,-1.075 -2.481,-0.983 -1.355,-0.518 0,0"
         style="fill:#a2c9eb;fill-opacity:1;fill-rule:evenodd;stroke:none"
         id="path736"
         inkscape:connector-curvature="0" /></g><g
       id="g738"
       transform="translate(157.07487,205.3011)"><path
         d="M 0,0 C 0,-0.917 1.318,-1.122 1.577,-0.201 1.594,-0.133 1.602,-0.071 1.602,0 l 0,1.602 c 0,0.916 -1.319,1.121 -1.578,0.2 C 0.009,1.734 0,1.672 0,1.602 L 0,0 z"
         style="fill:#5896cc;fill-opacity:1;fill-rule:nonzero;stroke:none"
         id="path740"
         inkscape:connector-curvature="0" /></g><g
       id="g742"
       transform="translate(157.07487,198.8919)"><path
         d="m 0,0 c 0,-0.917 1.318,-1.122 1.577,-0.2 0.017,0.068 0.025,0.13 0.025,0.2 l 0,1.602 C 1.602,2.519 0.283,2.724 0.024,1.803 0.009,1.734 0,1.673 0,1.602 L 0,0 z"
         style="fill:#5896cc;fill-opacity:1;fill-rule:nonzero;stroke:none"
         id="path744"
         inkscape:connector-curvature="0" /></g><g
       id="g746"
       transform="translate(157.07487,192.4832)"><path
         d="m 0,0 c 0,-0.917 1.318,-1.122 1.577,-0.2 0.017,0.068 0.025,0.129 0.025,0.2 l 0,1.602 C 1.602,2.519 0.283,2.724 0.024,1.803 0.009,1.735 0,1.673 0,1.602 L 0,0 z"
         style="fill:#5896cc;fill-opacity:1;fill-rule:nonzero;stroke:none"
         id="path748"
         inkscape:connector-curvature="0" /></g><g
       id="g750"
       transform="translate(157.07487,186.075)"><path
         d="m 0,0 c 0,-0.917 1.318,-1.122 1.577,-0.2 0.017,0.068 0.025,0.129 0.025,0.2 l 0,1.602 c 0,0.917 -1.319,1.122 -1.578,0.2 C 0.009,1.734 0,1.673 0,1.602 L 0,0 z"
         style="fill:#5896cc;fill-opacity:1;fill-rule:nonzero;stroke:none"
         id="path752"
         inkscape:connector-curvature="0" /></g><g
       id="g754"
       transform="translate(29.09007,47.704898)"><path
         d="m 0,0 60.915,0 0,37.301 -71.539,0 L 0,0 z"
         style="fill:#5896cc;fill-opacity:1;fill-rule:evenodd;stroke:none"
         id="path756"
         inkscape:connector-curvature="0" /></g><g
       id="g758"
       transform="translate(119.86587,73.544698)"><path
         d="M 0,0 1.274,0.515 3.473,-4.929 2.199,-5.443 0,0 z"
         style="fill:#5896cc;fill-opacity:1;fill-rule:evenodd;stroke:none"
         id="path760"
         inkscape:connector-curvature="0" /></g><g
       id="g762"
       transform="translate(107.27757,77.207298)"><path
         d="m 0,0 c 0.218,-1.307 0.858,-3.514 0.835,-6.345 -0.036,-4.368 0.798,-8.513 0.607,-11.315 -0.134,-1.962 -0.533,-3.227 -3.112,-3.623 -4.581,-0.703 -7.434,4.006 -6.181,9.968 C -6.597,-5.353 -1.984,0.491 0,0"
         style="fill:#a2c9eb;fill-opacity:1;fill-rule:evenodd;stroke:none"
         id="path764"
         inkscape:connector-curvature="0" /></g><g
       id="g766"
       transform="translate(109.90347,60.979298)"><path
         d="M 0,0 C 4.797,0.804 8.858,0.431 9.07,-0.833 9.282,-2.099 5.565,-3.775 0.768,-4.58 -4.03,-5.384 -7.448,-5.363 -7.66,-4.098 -7.872,-2.833 -4.797,-0.804 0,0"
         style="fill:#5896cc;fill-opacity:1;fill-rule:evenodd;stroke:none"
         id="path768"
         inkscape:connector-curvature="0" /></g><g
       id="g770"
       transform="translate(117.13157,49.123798)"><path
         d="M 0,0 C -1.882,0.864 -3.705,0.792 -4.072,-0.161 -4.439,-1.114 -3.211,-2.585 -1.33,-3.449 0.552,-4.313 2.375,-4.241 2.742,-3.288 3.109,-2.335 1.882,-0.863 0,0"
         style="fill:#4a301b;fill-opacity:1;fill-rule:evenodd;stroke:none"
         id="path772"
         inkscape:connector-curvature="0" /></g><g
       id="g774"
       transform="translate(114.24047,55.267398)"><path
         d="M 0,0 C 1.129,3.418 2.98,5.88 4.134,5.5 5.289,5.118 5.308,2.038 4.179,-1.38 3.578,-3.201 3.382,-5.442 2.876,-6.072 2.433,-6.625 -0.782,-6.509 -1.036,-5.904 -1.543,-4.697 -0.716,-2.167 0,0"
         style="fill:#5896cc;fill-opacity:1;fill-rule:evenodd;stroke:none"
         id="path776"
         inkscape:connector-curvature="0" /></g><g
       id="g778"
       transform="translate(107.45727,77.375298)"><path
         d="M 0,0 C 0.12,-0.721 0.24,-1.768 0.428,-3.025 -1,-2.964 -2.16,-2.234 -2.708,-1.457 -1.649,-0.404 -0.666,0.165 0,0"
         style="fill:#ffd7b7;fill-opacity:1;fill-rule:evenodd;stroke:none"
         id="path780"
         inkscape:connector-curvature="0" /></g><g
       id="g782"
       transform="translate(108.93667,72.044198)"><path
         d="M 0,0 C 2.412,-1.642 4.043,-3.449 3.642,-4.038 3.242,-4.626 0.962,-3.772 -1.45,-2.131 -3.862,-0.489 -6.421,0.27 -5.092,1.906 -3.764,3.544 -2.412,1.642 0,0"
         style="fill:#a2c9eb;fill-opacity:1;fill-rule:evenodd;stroke:none"
         id="path784"
         inkscape:connector-curvature="0" /></g><g
       id="g786"
       transform="translate(121.24287,68.874798)"><path
         d="M 0,0 C 1.253,0.105 2.195,0.687 2.105,1.301 2.015,1.914 0.926,2.326 -0.326,2.221 -1.579,2.116 -2.521,1.533 -2.431,0.92 -2.341,0.307 -1.252,-0.105 0,0"
         style="fill:#ffd7b7;fill-opacity:1;fill-rule:evenodd;stroke:none"
         id="path788"
         inkscape:connector-curvature="0" /></g><g
       id="g790"
       transform="translate(107.69547,85.915798)"><path
         d="M 0,0 C 2.825,0.474 5.498,-1.432 5.972,-4.257 6.445,-7.082 4.54,-9.755 1.714,-10.229 -1.11,-10.702 -3.784,-8.796 -4.257,-5.972 -4.731,-3.147 -2.825,-0.474 0,0"
         style="fill:#ffd7b7;fill-opacity:1;fill-rule:evenodd;stroke:none"
         id="path792"
         inkscape:connector-curvature="0" /></g><g
       id="g794"
       transform="translate(107.69547,85.915798)"><path
         d="M 0,0 C 2.825,0.474 5.498,-1.432 5.972,-4.257 5.995,-4.396 6.013,-4.536 6.025,-4.674 4.995,-5.144 3.614,-5.935 0.437,-5.185 -1.493,-3.621 -1.256,-6.496 -0.897,-6.888 -0.328,-7.509 -3.58,-11.56 -4.481,-6.183 -4.955,-3.357 -2.825,-0.474 0,0"
         style="fill:#4a301b;fill-opacity:1;fill-rule:evenodd;stroke:none"
         id="path796"
         inkscape:connector-curvature="0" /></g><g
       id="g798"
       transform="translate(107.65207,86.260998)"><path
         d="M 0,0 C 3.019,0.506 5.878,-1.492 6.454,-4.482 L -3.892,-2.649 C -3.073,-1.29 -1.688,-0.283 0,0"
         style="fill:#a2c9eb;fill-opacity:1;fill-rule:evenodd;stroke:none"
         id="path800"
         inkscape:connector-curvature="0" /></g><g
       id="g802"
       transform="translate(103.48307,83.745898)"><path
         d="M 0,0 11.902,-2.109 11.814,-2.585 -0.088,-0.477 0,0 z"
         style="fill:#a2c9eb;fill-opacity:1;fill-rule:evenodd;stroke:none"
         id="path804"
         inkscape:connector-curvature="0" /></g><g
       id="g806"
       transform="translate(107.77267,85.704398)"><path
         d="M 0,0 C 2.443,0.41 4.771,-1.003 5.592,-3.249 4.482,-1.21 2.167,-0.001 -0.25,-0.406 -1.331,-0.587 -2.287,-1.067 -3.048,-1.747 -2.3,-0.851 -1.241,-0.208 0,0"
         style="fill:#ffffff;fill-opacity:1;fill-rule:evenodd;stroke:none"
         id="path808"
         inkscape:connector-curvature="0" /></g><g
       id="g810"
       transform="translate(116.02407,67.999798)"><path
         d="m 0,0 c -2.488,-0.522 -4.608,-0.453 -4.736,0.154 -0.127,0.607 2.304,1.631 4.275,2.044 1.97,0.414 2.659,0.485 3.524,0.435 C 3.317,2.619 3.677,1.056 3.439,0.934 2.619,0.516 1.42,0.298 0,0"
         style="fill:#a2c9eb;fill-opacity:1;fill-rule:evenodd;stroke:none"
         id="path812"
         inkscape:connector-curvature="0" /></g><g
       id="g814"
       transform="translate(108.39867,72.687798)"><path
         d="M 0,0 C 2.431,-0.991 4.206,-2.274 3.964,-2.868 3.723,-3.461 1.556,-3.139 -0.875,-2.148 -3.306,-1.157 -5.701,-0.971 -4.839,0.72 -3.978,2.41 -2.431,0.991 0,0"
         style="fill:#a2c9eb;fill-opacity:1;fill-rule:evenodd;stroke:none"
         id="path816"
         inkscape:connector-curvature="0" /></g><g
       id="g818"
       transform="translate(119.82347,72.213198)"><path
         d="M 0,0 C 1.083,0.328 1.802,1.018 1.607,1.541 1.413,2.063 0.377,2.221 -0.705,1.893 -1.788,1.564 -2.507,0.875 -2.312,0.353 -2.118,-0.17 -1.083,-0.328 0,0"
         style="fill:#ffd7b7;fill-opacity:1;fill-rule:evenodd;stroke:none"
         id="path820"
         inkscape:connector-curvature="0" /></g><g
       id="g822"
       transform="translate(115.39567,70.461698)"><path
         d="m 0,0 c -2.091,-0.927 -3.97,-1.266 -4.196,-0.755 -0.226,0.51 1.721,1.868 3.377,2.603 C 0.837,2.582 1.43,2.774 2.201,2.893 2.426,2.928 3.037,1.621 2.851,1.469 2.208,0.947 1.194,0.529 0,0"
         style="fill:#a2c9eb;fill-opacity:1;fill-rule:evenodd;stroke:none"
         id="path824"
         inkscape:connector-curvature="0" /></g><g
       id="g826"
       transform="translate(32.61497,25.369398)"><path
         d="m 0,0 c -3.652,0 -6.613,2.961 -6.613,6.613 0,3.653 2.961,6.614 6.613,6.614 l 0,4.959 -21.945,0 0,-15.08 10.914,0 C -9.545,-1.57 -5.168,-4.959 0,-4.959 L 0,0 z m 0,13.227 c 3.652,0 6.613,-2.961 6.613,-6.614 C 6.613,2.961 3.652,0 0,0 l 0,-4.959 c 5.169,0 9.545,3.389 11.031,8.065 l 67.041,0 c 1.485,-4.676 5.862,-8.065 11.031,-8.065 l 0,4.959 C 85.45,0 82.49,2.961 82.49,6.613 c 0,3.653 2.96,6.614 6.613,6.614 l 0,31.169 -21.044,0 0,17.721 20.718,0 0.326,-1.304 0,7.125 -27.59,0 0,-23.542 0,-11.795 0,-14.415 -61.513,0 0,-4.959 z m 89.103,-18.186 0,4.959 c 3.651,0 6.612,2.961 6.612,6.613 0,3.653 -2.961,6.614 -6.612,6.614 l 0,31.169 4.101,0 -4.101,16.417 0,7.125 3.31,0 5.882,-23.542 2.796,0 8.563,0 c 3.87,0 7.038,-3.167 7.038,-7.038 l 0,-19.172 4.909,0 0,-15.08 -21.467,0 C 98.648,-1.57 94.271,-4.959 89.103,-4.959"
         style="fill:#666666;fill-opacity:1;fill-rule:evenodd;stroke:none"
         id="path828"
         inkscape:connector-curvature="0" /></g><g
       id="g830"
       transform="translate(90.44987,99.871898)"><path
         d="m 0,0 19.128,0 0,6.564 -19.128,0 -4.814,0 -6.623,-13.128 -68.343,0 13.978,-45.603 8.317,0 0,32.682 11.195,-32.682 7.76,0 0,32.682 11.195,-32.682 7.76,0 0,32.682 11.195,-32.682 8.38,0 0,32.682 0,1.716 L 0,-6.564 0,0 z"
         style="fill:#a2c9eb;fill-opacity:1;fill-rule:evenodd;stroke:none"
         id="path832"
         inkscape:connector-curvature="0" /></g><g
       id="g834"
       transform="translate(32.61547,24.456298)"><path
         d="m 0,0 c 4.146,0 7.527,3.381 7.527,7.526 0,4.146 -3.381,7.528 -7.527,7.528 -4.146,0 -7.527,-3.382 -7.527,-7.528 C -7.527,3.381 -4.146,0 0,0"
         style="fill:#a2c9eb;fill-opacity:1;fill-rule:evenodd;stroke:none"
         id="path836"
         inkscape:connector-curvature="0" /></g><g
       id="g838"
       transform="translate(121.59977,24.456298)"><path
         d="m 0,0 c 4.146,0 7.527,3.381 7.527,7.526 0,4.146 -3.381,7.528 -7.527,7.528 -4.146,0 -7.527,-3.382 -7.527,-7.528 C -7.527,3.381 -4.146,0 0,0"
         style="fill:#a2c9eb;fill-opacity:1;fill-rule:evenodd;stroke:none"
         id="path840"
         inkscape:connector-curvature="0" /></g><g
       id="g842"
       transform="translate(168.98797,122.9221)"><path
         d="m 0,0 36.619,-102.512 4.051,0 L 4.052,0 0,0 z"
         style="fill:#ffd47f;fill-opacity:1;fill-rule:evenodd;stroke:none"
         id="path844"
         inkscape:connector-curvature="0" /></g><g
       id="g846"
       transform="translate(189.49677,122.9221)"><path
         d="m 0,0 36.618,-102.512 4.051,0 L 4.051,0 0,0 z"
         style="fill:#ffd47f;fill-opacity:1;fill-rule:evenodd;stroke:none"
         id="path848"
         inkscape:connector-curvature="0" /></g><path
       d="m 205.29817,28.340598 20.162,0 0,3.309 -20.162,0 0,-3.309 z"
       style="fill:#ffd47f;fill-opacity:1;fill-rule:evenodd;stroke:none"
       id="path850"
       inkscape:connector-curvature="0" /><path
       d="m 200.39617,42.142598 20.163,0 0,3.309 -20.163,0 0,-3.309 z"
       style="fill:#ffd47f;fill-opacity:1;fill-rule:evenodd;stroke:none"
       id="path852"
       inkscape:connector-curvature="0" /><path
       d="m 195.49517,55.945598 20.162,0 0,3.309 -20.162,0 0,-3.309 z"
       style="fill:#ffd47f;fill-opacity:1;fill-rule:evenodd;stroke:none"
       id="path854"
       inkscape:connector-curvature="0" /><path
       d="m 190.59317,69.747598 20.162,0 0,3.309 -20.162,0 0,-3.309 z"
       style="fill:#ffd47f;fill-opacity:1;fill-rule:evenodd;stroke:none"
       id="path856"
       inkscape:connector-curvature="0" /><path
       d="m 185.69117,83.550598 20.162,0 0,3.309 -20.162,0 0,-3.309 z"
       style="fill:#ffd47f;fill-opacity:1;fill-rule:evenodd;stroke:none"
       id="path858"
       inkscape:connector-curvature="0" /><path
       d="m 180.78917,97.352598 20.163,0 0,3.309002 -20.163,0 0,-3.309002 z"
       style="fill:#ffd47f;fill-opacity:1;fill-rule:evenodd;stroke:none"
       id="path860"
       inkscape:connector-curvature="0" /><g
       id="g862"
       transform="translate(190.06217,103.5193)"><path
         d="m 0,0 c 2.07,0.05 3.677,-0.203 3.677,-1.756 0,-1.553 -1.747,-1.355 -3.818,-1.405 -2.069,-0.05 -3.715,0.203 -3.677,1.223 C -3.779,-0.918 -2.069,-0.05 0,0"
         style="fill:#5896cc;fill-opacity:1;fill-rule:evenodd;stroke:none"
         id="path864"
         inkscape:connector-curvature="0" /></g><g
       id="g866"
       transform="translate(186.24677,124.2678)"><path
         d="m 0,0 c 0.327,-0.825 0.491,-1.615 0.555,-3.289 0.026,-0.699 0.091,-1.445 0.2,-2.228 0.219,-1.589 0.845,-5.831 1.217,-7.112 0.494,-1.704 0.217,-7.411 0.503,-7.921 0.362,-0.645 4.634,-1.222 4.973,-0.7 0.678,1.041 -0.448,3.283 -0.852,5.561 -0.149,0.838 -0.388,1.629 -0.571,2.366 -0.386,1.564 -0.3,1.114 -0.37,2.697 C 5.59,-9.141 5.653,-7.347 5.383,-5.392 5.166,-3.831 4.911,-2.426 4.622,-1.238 4.428,-0.442 4.372,-0.225 4.412,0 L 0,0 z"
         style="fill:#a2c9eb;fill-opacity:1;fill-rule:evenodd;stroke:none"
         id="path868"
         inkscape:connector-curvature="0" /></g><g
       id="g870"
       transform="translate(187.61977,103.5193)"><path
         d="m 0,0 c 2.069,0.05 3.677,-0.203 3.677,-1.756 0,-1.553 -1.748,-1.355 -3.818,-1.405 -2.069,-0.05 -3.715,0.203 -3.676,1.223 C -3.779,-0.918 -2.069,-0.05 0,0"
         style="fill:#5896cc;fill-opacity:1;fill-rule:evenodd;stroke:none"
         id="path872"
         inkscape:connector-curvature="0" /></g><g
       id="g874"
       transform="translate(181.45967,143.4451)"><path
         d="m 0,0 c 0.002,-1.325 -0.628,-3.642 0.29,-6.32 2.151,-6.277 3.137,-8.488 4.439,-12.665 0.281,-0.901 0.378,-1.679 0.246,-3.481 -0.052,-0.699 -0.071,-1.445 -0.05,-2.228 0.043,-1.59 0.195,-5.831 0.424,-7.112 0.303,-1.704 -0.611,-7.411 -0.381,-7.921 0.291,-0.646 4.498,-1.222 4.895,-0.701 0.793,1.041 -0.083,3.283 -0.231,5.561 -0.056,0.839 -0.207,1.63 -0.307,2.367 -0.213,1.564 -0.177,1.114 -0.069,2.697 0.1,1.485 0.364,3.279 0.311,5.234 -0.042,1.561 -0.139,2.966 -0.296,4.153 -0.2,1.52 -0.133,0.93 0.363,2.312 0.811,2.264 0.997,5.516 -0.067,8.231 C 7.345,-4.2 1.875,0.812 0,0"
         style="fill:#a2c9eb;fill-opacity:1;fill-rule:evenodd;stroke:none"
         id="path876"
         inkscape:connector-curvature="0" /></g><g
       id="g878"
       transform="translate(181.20867,143.5701)"><path
         d="M 0,0 C 0.001,-0.731 0.056,-1.784 0.078,-3.055 1.477,-2.758 2.5,-1.846 2.911,-0.99 1.693,-0.126 0.63,0.272 0,0"
         style="fill:#ffd7b7;fill-opacity:1;fill-rule:evenodd;stroke:none"
         id="path880"
         inkscape:connector-curvature="0" /></g><g
       id="g882"
       transform="translate(169.01827,132.907)"><path
         d="m 0,0 c -1.253,-0.104 -2.278,0.315 -2.291,0.935 -0.012,0.62 0.993,1.206 2.245,1.309 C 1.207,2.348 2.233,1.929 2.246,1.31 2.259,0.69 1.253,0.104 0,0"
         style="fill:#ffd7b7;fill-opacity:1;fill-rule:evenodd;stroke:none"
         id="path884"
         inkscape:connector-curvature="0" /></g><g
       id="g886"
       transform="translate(179.56217,151.9534)"><path
         d="m 0,0 c -2.864,0 -5.187,-2.321 -5.187,-5.186 0,-2.864 2.323,-5.186 5.187,-5.186 2.864,0 5.186,2.322 5.186,5.186 C 5.186,-2.321 2.864,0 0,0"
         style="fill:#ffd7b7;fill-opacity:1;fill-rule:evenodd;stroke:none"
         id="path888"
         inkscape:connector-curvature="0" /></g><g
       id="g890"
       transform="translate(179.56217,151.9534)"><path
         d="m 0,0 c -2.864,0 -5.187,-2.321 -5.187,-5.186 0,-0.142 0.006,-0.282 0.017,-0.42 1.094,-0.293 2.586,-0.844 5.597,0.42 C 2.07,-3.324 2.313,-6.199 2.023,-6.645 1.564,-7.352 5.441,-10.81 5.441,-5.357 5.441,-2.492 2.864,0 0,0"
         style="fill:#4d4d4d;fill-opacity:1;fill-rule:evenodd;stroke:none"
         id="path892"
         inkscape:connector-curvature="0" /></g><g
       id="g894"
       transform="translate(179.54757,152.3015)"><path
         d="M 0,0 C -3.061,0 -5.55,-2.445 -5.623,-5.489 L 4.276,-1.97 C 3.244,-0.765 1.712,0 0,0"
         style="fill:#a2c9eb;fill-opacity:1;fill-rule:evenodd;stroke:none"
         id="path896"
         inkscape:connector-curvature="0" /></g><g
       id="g898"
       transform="translate(184.07487,150.5095)"><path
         d="m 0,0 -11.39,-4.048 0.165,-0.455 11.39,4.047 L 0,0 z"
         style="fill:#a2c9eb;fill-opacity:1;fill-rule:evenodd;stroke:none"
         id="path900"
         inkscape:connector-curvature="0" /></g><g
       id="g902"
       transform="translate(179.52017,151.7317)"><path
         d="m 0,0 c -2.477,0 -4.539,-1.778 -4.979,-4.129 0.759,2.194 2.842,3.77 5.293,3.77 1.096,0 2.119,-0.314 2.982,-0.859 C 2.41,-0.459 1.259,0 0,0"
         style="fill:#ffffff;fill-opacity:1;fill-rule:evenodd;stroke:none"
         id="path904"
         inkscape:connector-curvature="0" /></g><g
       id="g906"
       transform="translate(174.31027,132.907)"><path
         d="m 0,0 c 2.127,-0.087 3.931,0.192 4.477,0.649 0.924,0.392 2.275,1.356 3.626,2.65 2.108,2.017 4.506,3.189 2.924,4.584 C 9.447,9.278 7.66,6.337 6.321,5.16 5.584,4.514 5.017,3.775 4.446,3.188 3.579,2.294 3.594,2.102 0.091,2.244 -1.921,2.326 -2.611,2.282 -3.457,2.09 -3.704,2.034 -3.802,0.433 -3.547,0.353 -2.669,0.076 -1.45,0.059 0,0"
         style="fill:#a2c9eb;fill-opacity:1;fill-rule:evenodd;stroke:none"
         id="path908"
         inkscape:connector-curvature="0" /></g><g
       id="g910"
       transform="translate(171.02607,129.4436)"><path
         d="m 0,0 c -1.185,-0.42 -2.283,-0.277 -2.453,0.319 -0.17,0.597 0.652,1.42 1.837,1.839 C 0.569,2.578 1.667,2.435 1.838,1.839 2.008,1.242 1.185,0.419 0,0"
         style="fill:#ffd7b7;fill-opacity:1;fill-rule:evenodd;stroke:none"
         id="path912"
         inkscape:connector-curvature="0" /></g><g
       id="g914"
       transform="translate(176.14327,130.7928)"><path
         d="M 0,0 C 2.079,0.458 3.752,1.188 4.163,1.769 4.958,2.383 6.018,3.66 6.994,5.255 8.519,7.744 10.539,9.488 8.654,10.434 6.77,11.379 5.792,8.081 4.797,6.601 4.249,5.788 3.889,4.929 3.487,4.216 2.876,3.13 2.939,2.948 -0.484,2.193 -2.45,1.759 -3.107,1.541 -3.876,1.14 -4.101,1.022 -3.786,-0.551 -3.519,-0.563 -2.6,-0.607 -1.417,-0.313 0,0"
         style="fill:#a2c9eb;fill-opacity:1;fill-rule:evenodd;stroke:none"
         id="path916"
         inkscape:connector-curvature="0" /></g><g
       id="g918"
       transform="translate(106.50657,176.2259)"><path
         d="M 0,0 52.353,10.204 54.573,-1.19 2.221,-11.395 0,0 z"
         style="fill:#ed7b5c;fill-opacity:1;fill-rule:evenodd;stroke:none"
         id="path920"
         inkscape:connector-curvature="0" /></g></g></svg>